<?xml version="1.0" standalone="no"?>
<!DOCTYPE svg PUBLIC "-//W3C//DTD SVG 20010904//EN"
 "http://www.w3.org/TR/2001/REC-SVG-20010904/DTD/svg10.dtd">
<svg version="1.0" xmlns="http://www.w3.org/2000/svg"
 width="250.000000pt" height="250.000000pt" viewBox="0 0 250.000000 250.000000"
 preserveAspectRatio="xMidYMid meet">
<metadata>
Created by potrace 1.14, written by Peter Selinger 2001-2017
</metadata>
<g transform="translate(0.000000,250.000000) scale(0.100000,-0.100000)"
fill="#000000" stroke="none">
<path d="M1152 2450 c-49 -30 -61 -69 -61 -201 0 -63 0 -137 -1 -164 l0 -50
-65 -13 c-407 -77 -719 -394 -799 -812 -22 -114 -15 -302 17 -420 75 -287 263
-517 533 -653 47 -24 154 -62 199 -71 11 -3 40 -9 65 -15 77 -18 333 -8 421
17 121 34 205 70 286 124 23 15 46 28 50 28 5 0 44 -36 88 -81 82 -85 105 -99
160 -99 42 0 92 41 104 85 14 52 -5 89 -89 174 -44 45 -80 85 -80 88 0 3 18
30 41 60 87 116 155 278 179 428 11 68 14 228 5 302 -9 89 -67 270 -98 310 -6
9 -4 15 9 19 11 3 41 14 68 25 27 10 54 19 61 19 19 0 48 38 42 54 -3 8 -41
42 -84 76 -129 100 -126 96 -173 225 -24 66 -48 123 -54 127 -26 18 -47 3
-102 -69 -32 -43 -66 -87 -76 -97 -10 -11 -18 -23 -18 -27 0 -3 -28 -17 -62
-29 -35 -13 -91 -33 -124 -46 l-62 -22 -58 30 c-33 16 -69 34 -80 38 l-22 9 0
-387 -1 -387 214 -214 c118 -118 216 -213 218 -210 76 98 139 303 131 426 -8
103 -14 152 -28 197 -8 27 -12 54 -8 61 19 31 95 125 101 125 11 0 59 -132 75
-206 16 -75 22 -246 10 -324 -22 -156 -115 -343 -231 -465 -99 -106 -281 -213
-423 -251 -78 -21 -299 -28 -380 -13 -321 61 -594 309 -685 622 -26 91 -27 97
-31 232 -3 112 0 143 21 224 95 367 391 623 772 667 46 6 59 2 127 -34 l76
-39 0 61 c1 33 1 157 1 274 -1 233 -2 237 -60 273 -40 24 -78 24 -119 -1z
m798 -552 c0 -7 13 -47 29 -88 24 -64 37 -82 82 -119 30 -24 65 -52 78 -63
l24 -21 -86 -31 c-91 -32 -109 -44 -142 -90 -11 -15 -30 -40 -42 -54 -13 -15
-23 -30 -23 -34 0 -5 -3 -8 -8 -8 -4 0 -20 37 -36 83 -34 95 -40 104 -123 165
-35 25 -63 49 -63 53 0 4 30 17 68 30 101 33 114 42 172 118 53 69 70 84 70
59z"/>
<path d="M972 1720 c-104 -37 -185 -91 -272 -179 -98 -99 -159 -206 -189 -331
-23 -91 -25 -231 -5 -325 35 -166 153 -341 302 -446 90 -64 223 -108 367 -122
86 -8 246 22 339 63 l49 22 -241 242 c-149 148 -247 254 -256 276 -11 28 -14
102 -15 375 0 187 -1 364 -1 393 0 59 -1 60 -78 32z"/>
</g>
</svg>
